<?xml version="1.0" standalone="no"?>
<!DOCTYPE svg PUBLIC "-//W3C//DTD SVG 20010904//EN"
 "http://www.w3.org/TR/2001/REC-SVG-20010904/DTD/svg10.dtd">
<svg version="1.0" xmlns="http://www.w3.org/2000/svg"
 width="512.000000pt" height="512.000000pt" viewBox="0 0 512.000000 512.000000"
 preserveAspectRatio="xMidYMid meet">
<metadata>
Created by potrace 1.11, written by Peter Selinger 2001-2013
</metadata>
<g transform="translate(0.000000,512.000000) scale(0.100000,-0.100000)"
fill="#000000" stroke="none">
<path d="M324 4917 c-50 -10 -88 -40 -109 -84 -17 -36 -18 -147 -19 -2255 -1
-1219 3 -2235 7 -2257 10 -53 61 -105 113 -117 23 -5 974 -9 2264 -8 l2225 1
41 25 c24 16 48 42 59 65 17 36 18 134 19 2243 1 1213 -2 2226 -6 2253 -9 59
-37 99 -85 122 -36 17 -146 18 -2255 19 -1220 1 -2234 -2 -2254 -7z m1991
-793 c81 -10 87 -11 155 -29 427 -111 778 -486 856 -915 21 -117 25 -294 9
-395 -3 -22 -8 -49 -10 -60 -18 -116 -108 -328 -181 -432 -16 -22 -6 -33 505
-544 418 -418 521 -526 521 -547 0 -57 -53 -133 -142 -204 -57 -46 -98 -60
-129 -44 -13 7 -254 243 -536 524 l-511 512 -79 -46 c-272 -162 -580 -210
-880 -138 -422 101 -765 434 -867 844 -86 342 -31 671 159 959 242 368 691
572 1130 515z"/>
<path d="M2005 3723 c-281 -59 -514 -275 -596 -553 -31 -108 -35 -297 -8 -400
66 -249 226 -438 454 -538 39 -17 82 -33 95 -36 14 -2 50 -10 80 -16 88 -17
218 -14 312 9 154 36 270 101 379 210 156 157 233 346 230 571 -1 71 -3 89
-17 152 -3 15 -5 30 -5 33 2 11 -48 132 -69 170 -117 208 -309 352 -535 401
-63 13 -250 12 -320 -3z"/>
</g>
</svg>
